name C:/MyDriveSym/Projects/mobilecap/Data\Session20210910_0002\mocap\ForceDataProcessed\walkingTS1_forces.mot
datacolumns 19
datarows 12
range 0.00000000 0.00550000
endheader 
time	R_ground_force_vx	R_ground_force_vy	R_ground_force_vz	R_ground_force_px	R_ground_force_py	R_ground_force_pz	R_ground_torque_x	R_ground_torque_y	R_ground_torque_z	L_ground_force_vx	L_ground_force_vy	L_ground_force_vz	L_ground_force_px	L_ground_force_py	L_ground_force_pz	L_ground_torque_x	L_ground_torque_y	L_ground_torque_z	
          0.00000000	        -64.07972300	        458.78799500	         35.13344900	          0.11943100	          0.00600000	         -0.25434500	          0.00000000	          1.04932900	          0.00000000	          0.00000000	          0.00000000	          0.00000000	          0.68743400	          0.00000000	         -0.40409700	          0.00000000	          0.00000000	          0.00000000	
          0.00050000	        -64.29777800	        459.75196900	         34.79944200	          0.11943100	          0.00600000	         -0.25434500	          0.00000000	          1.02620500	          0.00000000	          0.00000000	          0.00000000	          0.00000000	          0.68743400	          0.00000000	         -0.40409700	          0.00000000	          0.00000000	          0.00000000	
          0.00100000	        -64.51693800	        460.72416300	         34.46360100	          0.11943100	          0.00600000	         -0.25434500	          0.00000000	          1.00306200	          0.00000000	          0.00000000	          0.00000000	          0.00000000	          0.68743400	          0.00000000	         -0.40409700	          0.00000000	          0.00000000	          0.00000000	
          0.00150000	        -64.73719100	        461.70457100	         34.12594700	          0.11943100	          0.00600000	         -0.25434500	          0.00000000	          0.97990400	          0.00000000	          0.00000000	          0.00000000	          0.00000000	          0.68743400	          0.00000000	         -0.40409700	          0.00000000	          0.00000000	          0.00000000	
          0.00200000	        -64.95852200	        462.69318700	         33.78650100	          0.11967900	          0.00600000	         -0.25427000	          0.00000000	          0.95673400	          0.00000000	          0.00000000	          0.00000000	          0.00000000	          0.68743400	          0.00000000	         -0.40409700	          0.00000000	          0.00000000	          0.00000000	
          0.00250000	        -65.18091500	        463.69000300	         33.44528500	          0.11992800	          0.00600000	         -0.25419600	          0.00000000	          0.93355500	          0.00000000	          0.00000000	          0.00000000	          0.00000000	          0.68743400	          0.00000000	         -0.40409700	          0.00000000	          0.00000000	          0.00000000	
          0.00300000	        -65.40435700	        464.69501100	         33.10232100	          0.12017900	          0.00600000	         -0.25412100	          0.00000000	          0.91037200	          0.00000000	          0.00000000	          0.00000000	          0.00000000	          0.68743400	          0.00000000	         -0.40409700	          0.00000000	          0.00000000	          0.00000000	
          0.00350000	        -65.62883200	        465.70820400	         32.75763100	          0.12043100	          0.00600000	         -0.25404600	          0.00000000	          0.88718700	          0.00000000	          0.00000000	          0.00000000	          0.00000000	          0.68743400	          0.00000000	         -0.40409700	          0.00000000	          0.00000000	          0.00000000	
          0.00400000	        -65.85432500	        466.72957200	         32.41124100	          0.12068500	          0.00600000	         -0.25397100	          0.00000000	          0.86400600	          0.00000000	          0.00000000	          0.00000000	          0.00000000	          0.68743400	          0.00000000	         -0.40409700	          0.00000000	          0.00000000	          0.00000000	
          0.00450000	        -66.08082100	        467.75910600	         32.06317300	          0.12094000	          0.00600000	         -0.25389600	          0.00000000	          0.84083100	          0.00000000	          0.00000000	          0.00000000	          0.00000000	          0.68743400	          0.00000000	         -0.40409700	          0.00000000	          0.00000000	          0.00000000	
          0.00500000	        -66.30830400	        468.79679500	         31.71345200	          0.12119600	          0.00600000	         -0.25382000	          0.00000000	          0.81766600	          0.00000000	          0.00000000	          0.00000000	          0.00000000	          0.68743400	          0.00000000	         -0.40409700	          0.00000000	          0.00000000	          0.00000000	
          0.00550000	        -66.53676000	        469.84262800	         31.36210600	          0.12145400	          0.00600000	         -0.25374500	          0.00000000	          0.79451500	          0.00000000	          0.00000000	          0.00000000	          0.00000000	          0.68743400	          0.00000000	         -0.40409700	          0.00000000	          0.00000000	          0.00000000	
